<?xml version="1.0" encoding="UTF-8" standalone="no"?>
<svg
   version="1.1"
   id="Layer_1"
   x="0px"
   y="0px"
   width="2048"
   viewBox="0 0 2048 2048"
   enable-background="new 0 0 256 256"
   xml:space="preserve"
   sodipodi:docname="blank_inkscape.svg"
   inkscape:version="1.2.2 (732a01da63, 2022-12-09)"
   height="2048"
   xmlns:inkscape="http://www.inkscape.org/namespaces/inkscape"
   xmlns:sodipodi="http://sodipodi.sourceforge.net/DTD/sodipodi-0.dtd"
   xmlns="http://www.w3.org/2000/svg"
   xmlns:svg="http://www.w3.org/2000/svg"><defs
   id="defs5385" /><sodipodi:namedview
   id="namedview5383"
   pagecolor="#ffffff"
   bordercolor="#000000"
   borderopacity="0.25"
   inkscape:showpageshadow="2"
   inkscape:pageopacity="0.0"
   inkscape:pagecheckerboard="0"
   inkscape:deskcolor="#d1d1d1"
   showgrid="false"
   inkscape:zoom="0.28622633"
   inkscape:cx="897.89084"
   inkscape:cy="1156.4275"
   inkscape:window-width="1920"
   inkscape:window-height="1009"
   inkscape:window-x="-8"
   inkscape:window-y="340"
   inkscape:window-maximized="1"
   inkscape:current-layer="Layer_1" />



<g
   id="g5445"
   transform="matrix(8.442097,0,0,8.442097,-61.737745,-58.797615)"><path
     fill="#797774"
     opacity="1"
     stroke="none"
     d="m 192.74998,47.250061 c 6.14373,6.135864 12.11992,11.9431 17.86518,17.970497 1.22513,1.285301 2.28224,3.369621 2.28557,5.088036 0.10824,55.810936 0.0783,111.622146 0.0587,167.433306 -1.7e-4,0.48642 -0.13986,0.97279 -0.27519,1.85566 -55.33102,0 -110.68548,0 -166.362541,0 0,-73.61686 0,-147.181819 0,-221.385871 1.476093,-0.0671 3.060978,-0.201527 4.645908,-0.202051 36.152401,-0.01195 72.305053,-0.06156 108.456603,0.113138 2.30933,0.01116 5.14525,1.221947 6.8255,2.827644 8.9106,8.515236 17.52999,17.335228 26.50026,26.299641 m -31.75,-12.739452 c 0,-4.419508 0,-8.839016 0,-13.236172 -37.68337,0 -74.598481,0 -111.673951,0 0,71.963631 0,143.652503 0,215.339643 53.688271,0 107.049641,0 160.405761,0 0,-55.62914 0,-110.87194 0,-166.61392 -1.87051,0 -3.49742,3.1e-5 -5.12431,0 -12.49465,-2.13e-4 -24.99103,-0.119758 -37.483,0.06306 -4.46405,0.06533 -6.31711,-1.42324 -6.19733,-6.070789 0.2446,-9.48962 0.073,-18.989968 0.0728,-29.481819 m 2.98897,3.005329 c 0,9.737537 0,19.475078 0,29.046959 14.75959,0 28.73491,0 40.87198,0 -13.29874,-13.298088 -27.28376,-27.282414 -40.87198,-40.869969 0,2.893412 0,6.86213 0,11.82301 z"
     id="path5376" /><path
     fill="#fafafa"
     opacity="1"
     stroke="none"
     d="m 160.99997,35.008572 c 1.7e-4,9.993888 0.17177,19.494236 -0.0728,28.983856 -0.11978,4.647549 1.73328,6.13612 6.19733,6.070789 12.49197,-0.182815 24.98835,-0.06327 37.483,-0.06306 1.62689,3.1e-5 3.2538,0 5.12431,0 0,55.741983 0,110.984783 0,166.613923 -53.35612,0 -106.71749,0 -160.405761,0 0,-71.68714 0,-143.376015 0,-215.339646 37.07547,0 73.990581,0 111.673951,0 0,4.397156 0,8.816664 0,13.734135 z"
     id="path5378" /><path
     fill="#f7f7f7"
     opacity="1"
     stroke="none"
     d="m 163.98894,34.899249 c 0,-4.785281 0,-9.038874 0,-12.139976 14.56359,14.562873 29.55245,29.550996 43.80578,43.803624 -13.00828,0 -27.98674,0 -43.80578,0 0,-10.258953 0,-20.695456 0,-31.663648 z"
     id="path5380"
     style="stroke-width:1.07178" /></g>
</svg>
