<?xml version="1.0" encoding="UTF-8" standalone="no"?>
<svg
   version="1.1"
   id="Layer_1"
   x="0px"
   y="0px"
   width="100%"
   viewBox="0 0 256 256"
   enable-background="new 0 0 256 256"
   xml:space="preserve"
   sodipodi:docname="blank_adobe_express - Copy.svg"
   inkscape:version="1.2.2 (732a01da63, 2022-12-09)"
   xmlns:inkscape="http://www.inkscape.org/namespaces/inkscape"
   xmlns:sodipodi="http://sodipodi.sourceforge.net/DTD/sodipodi-0.dtd"
   xmlns="http://www.w3.org/2000/svg"
   xmlns:svg="http://www.w3.org/2000/svg"><defs
   id="defs5385" /><sodipodi:namedview
   id="namedview5383"
   pagecolor="#ffffff"
   bordercolor="#000000"
   borderopacity="0.25"
   inkscape:showpageshadow="2"
   inkscape:pageopacity="0.0"
   inkscape:pagecheckerboard="0"
   inkscape:deskcolor="#d1d1d1"
   showgrid="false"
   inkscape:zoom="6.4765625"
   inkscape:cx="142.35947"
   inkscape:cy="63.45959"
   inkscape:window-width="1920"
   inkscape:window-height="1009"
   inkscape:window-x="-8"
   inkscape:window-y="340"
   inkscape:window-maximized="1"
   inkscape:current-layer="Layer_1" />

<path
   fill="#797774"
   opacity="1.000000"
   stroke="none"
   d=" M192.749985,47.250061   C198.893707,53.385925 204.869904,59.193161 210.615158,65.220558   C211.840286,66.505859 212.897400,68.590179 212.900726,70.308594   C213.008972,126.119530 212.979050,181.930740 212.959442,237.741898   C212.959274,238.228317 212.819580,238.714691 212.684250,239.597565   C157.353226,239.597565 101.998772,239.597565 46.321709,239.597565   C46.321709,165.980698 46.321709,92.415741 46.321709,18.211689   C47.797802,18.144585 49.382687,18.010162 50.967617,18.009638   C87.120018,17.997692 123.272667,17.948082 159.424225,18.122776   C161.733551,18.133936 164.569473,19.344723 166.249725,20.950420   C175.160324,29.465656 183.779709,38.285648 192.749985,47.250061  M160.999969,34.510609   C160.999969,30.091101 160.999969,25.671593 160.999969,21.274437   C123.316605,21.274437 86.401489,21.274437 49.326019,21.274437   C49.326019,93.238068 49.326019,164.926941 49.326019,236.614075   C103.014290,236.614075 156.375656,236.614075 209.731781,236.614075   C209.731781,180.984940 209.731781,125.742142 209.731781,70.000160   C207.861267,70.000160 206.234360,70.000191 204.607468,70.000160   C192.112823,69.999947 179.616440,69.880402 167.124466,70.063217   C162.660416,70.128548 160.807358,68.639977 160.927139,63.992428   C161.171738,54.502808 161.000137,45.002460 160.999969,34.510609  M163.988937,37.515938   C163.988937,47.253475 163.988937,56.991016 163.988937,66.562897   C178.748535,66.562897 192.723846,66.562897 204.860916,66.562897   C191.562180,53.264809 177.577164,39.280483 163.988937,25.692928   C163.988937,28.586340 163.988937,32.555058 163.988937,37.515938  z"
   id="path5376" />
<path
   fill="#FAFAFA"
   opacity="1.000000"
   stroke="none"
   d=" M160.999969,35.008572   C161.000137,45.002460 161.171738,54.502808 160.927139,63.992428   C160.807358,68.639977 162.660416,70.128548 167.124466,70.063217   C179.616440,69.880402 192.112823,69.999947 204.607468,70.000160   C206.234360,70.000191 207.861267,70.000160 209.731781,70.000160   C209.731781,125.742142 209.731781,180.984940 209.731781,236.614075   C156.375656,236.614075 103.014290,236.614075 49.326019,236.614075   C49.326019,164.926941 49.326019,93.238068 49.326019,21.274437   C86.401489,21.274437 123.316605,21.274437 160.999969,21.274437   C160.999969,25.671593 160.999969,30.091101 160.999969,35.008572  z"
   id="path5378" />
<path
   fill="#f7f7f7"
   opacity="1"
   stroke="none"
   d="m 163.98894,34.899249 c 0,-4.785281 0,-9.038874 0,-12.139976 14.56359,14.562873 29.55245,29.550996 43.80578,43.803624 -13.00828,0 -27.98674,0 -43.80578,0 0,-10.258953 0,-20.695456 0,-31.663648 z"
   id="path5380"
   style="stroke-width:1.07178" />
</svg>
