<svg xmlns="http://www.w3.org/2000/svg" viewBox="0.3499999940395355 10.550000190734863 2013.3499755859375 792.0499877929688" data-asc="0.83" width="2013.3499755859375" height="792.0499877929688"><defs/><g fill="#000000"><g transform="translate(0, 0)"><path d="M11.85 20.65Q13.20 21.90 14.65 23.27Q16.10 24.65 17.10 26.20L17.30 26.45L13.80 29L13.55 28.70Q12.50 27.20 11.65 25.43Q10.80 23.65 10.05 22Q9.25 23.65 8.40 25.43Q7.55 27.20 6.40 28.70L6.15 28.95L2.70 26.45L2.95 26.15Q4.05 24.60 5.45 23.25Q6.85 21.90 8.20 20.65Q6.35 20.40 4.40 20.13Q2.45 19.85 0.70 19.25L0.35 19.15L1.70 15.05L2.05 15.20Q3.80 15.90 5.58 16.75Q7.35 17.60 8.95 18.50Q8.55 16.70 8.23 14.75Q7.90 12.80 7.90 10.90L7.90 10.55L12.20 10.55L12.20 10.90Q12.20 12.80 11.88 14.75Q11.55 16.70 11.15 18.50Q12.75 17.55 14.50 16.72Q16.25 15.90 18 15.25L18.35 15.10L19.65 19.20L19.35 19.30Q17.55 19.85 15.63 20.15Q13.70 20.45 11.85 20.65ZM338.70 38.30Q338.70 39.80 337.70 40.95Q336.70 42.10 335.05 42.10Q333.35 42.10 332.35 40.95Q331.35 39.80 331.35 38.30Q331.35 36.75 332.35 35.60Q333.35 34.45 335.05 34.45Q336.70 34.45 337.70 35.60Q338.70 36.75 338.70 38.30ZM811.85 20.65Q813.20 21.90 814.65 23.27Q816.10 24.65 817.10 26.20L817.30 26.45L813.80 29L813.55 28.70Q812.50 27.20 811.65 25.43Q810.80 23.65 810.05 22Q809.25 23.65 808.40 25.43Q807.55 27.20 806.40 28.70L806.15 28.95L802.70 26.45L802.95 26.15Q804.05 24.60 805.45 23.25Q806.85 21.90 808.20 20.65Q806.35 20.40 804.40 20.13Q802.45 19.85 800.70 19.25L800.35 19.15L801.70 15.05L802.05 15.20Q803.80 15.90 805.58 16.75Q807.35 17.60 808.95 18.50Q808.55 16.70 808.23 14.75Q807.90 12.80 807.90 10.90L807.90 10.55L812.20 10.55L812.20 10.90Q812.20 12.80 811.88 14.75Q811.55 16.70 811.15 18.50Q812.75 17.55 814.50 16.72Q816.25 15.90 818 15.25L818.35 15.10L819.65 19.20L819.35 19.30Q817.55 19.85 815.63 20.15Q813.70 20.45 811.85 20.65ZM1238.70 38.30Q1238.70 39.80 1237.70 40.95Q1236.70 42.10 1235.05 42.10Q1233.35 42.10 1232.35 40.95Q1231.35 39.80 1231.35 38.30Q1231.35 36.75 1232.35 35.60Q1233.35 34.45 1235.05 34.45Q1236.70 34.45 1237.70 35.60Q1238.70 36.75 1238.70 38.30ZM1536.85 20.65Q1538.20 21.90 1539.65 23.27Q1541.10 24.65 1542.10 26.20L1542.30 26.45L1538.80 29L1538.55 28.70Q1537.50 27.20 1536.65 25.43Q1535.80 23.65 1535.05 22Q1534.25 23.65 1533.40 25.43Q1532.55 27.20 1531.40 28.70L1531.15 28.95L1527.70 26.45L1527.95 26.15Q1529.05 24.60 1530.45 23.25Q1531.85 21.90 1533.20 20.65Q1531.35 20.40 1529.40 20.13Q1527.45 19.85 1525.70 19.25L1525.35 19.15L1526.70 15.05L1527.05 15.20Q1528.80 15.90 1530.58 16.75Q1532.35 17.60 1533.95 18.50Q1533.55 16.70 1533.22 14.75Q1532.90 12.80 1532.90 10.90L1532.90 10.55L1537.20 10.55L1537.20 10.90Q1537.20 12.80 1536.88 14.75Q1536.55 16.70 1536.15 18.50Q1537.75 17.55 1539.50 16.72Q1541.25 15.90 1543 15.25L1543.35 15.10L1544.65 19.20L1544.35 19.30Q1542.55 19.85 1540.63 20.15Q1538.70 20.45 1536.85 20.65ZM2013.70 38.30Q2013.70 39.80 2012.70 40.95Q2011.70 42.10 2010.05 42.10Q2008.35 42.10 2007.35 40.95Q2006.35 39.80 2006.35 38.30Q2006.35 36.75 2007.35 35.60Q2008.35 34.45 2010.05 34.45Q2011.70 34.45 2012.70 35.60Q2013.70 36.75 2013.70 38.30Z"/></g><g transform="translate(0, 58.5)"><path d="M13.70 38.30Q13.70 39.80 12.70 40.95Q11.70 42.10 10.05 42.10Q8.35 42.10 7.35 40.95Q6.35 39.80 6.35 38.30Q6.35 36.75 7.35 35.60Q8.35 34.45 10.05 34.45Q11.70 34.45 12.70 35.60Q13.70 36.75 13.70 38.30ZM436.85 20.65Q438.20 21.90 439.65 23.27Q441.10 24.65 442.10 26.20L442.30 26.45L438.80 29L438.55 28.70Q437.50 27.20 436.65 25.43Q435.80 23.65 435.05 22Q434.25 23.65 433.40 25.43Q432.55 27.20 431.40 28.70L431.15 28.95L427.70 26.45L427.95 26.15Q429.05 24.60 430.45 23.25Q431.85 21.90 433.20 20.65Q431.35 20.40 429.40 20.13Q427.45 19.85 425.70 19.25L425.35 19.15L426.70 15.05L427.05 15.20Q428.80 15.90 430.57 16.75Q432.35 17.60 433.95 18.50Q433.55 16.70 433.23 14.75Q432.90 12.80 432.90 10.90L432.90 10.55L437.20 10.55L437.20 10.90Q437.20 12.80 436.88 14.75Q436.55 16.70 436.15 18.50Q437.75 17.55 439.50 16.72Q441.25 15.90 443 15.25L443.35 15.10L444.65 19.20L444.35 19.30Q442.55 19.85 440.63 20.15Q438.70 20.45 436.85 20.65ZM938.70 38.30Q938.70 39.80 937.70 40.95Q936.70 42.10 935.05 42.10Q933.35 42.10 932.35 40.95Q931.35 39.80 931.35 38.30Q931.35 36.75 932.35 35.60Q933.35 34.45 935.05 34.45Q936.70 34.45 937.70 35.60Q938.70 36.75 938.70 38.30ZM1611.85 20.65Q1613.20 21.90 1614.65 23.27Q1616.10 24.65 1617.10 26.20L1617.30 26.45L1613.80 29L1613.55 28.70Q1612.50 27.20 1611.65 25.43Q1610.80 23.65 1610.05 22Q1609.25 23.65 1608.40 25.43Q1607.55 27.20 1606.40 28.70L1606.15 28.95L1602.70 26.45L1602.95 26.15Q1604.05 24.60 1605.45 23.25Q1606.85 21.90 1608.20 20.65Q1606.35 20.40 1604.40 20.13Q1602.45 19.85 1600.70 19.25L1600.35 19.15L1601.70 15.05L1602.05 15.20Q1603.80 15.90 1605.58 16.75Q1607.35 17.60 1608.95 18.50Q1608.55 16.70 1608.22 14.75Q1607.90 12.80 1607.90 10.90L1607.90 10.55L1612.20 10.55L1612.20 10.90Q1612.20 12.80 1611.88 14.75Q1611.55 16.70 1611.15 18.50Q1612.75 17.55 1614.50 16.72Q1616.25 15.90 1618 15.25L1618.35 15.10L1619.65 19.20L1619.35 19.30Q1617.55 19.85 1615.63 20.15Q1613.70 20.45 1611.85 20.65Z"/></g><g transform="translate(0, 117)"><path d="M13.70 38.30Q13.70 39.80 12.70 40.95Q11.70 42.10 10.05 42.10Q8.35 42.10 7.35 40.95Q6.35 39.80 6.35 38.30Q6.35 36.75 7.35 35.60Q8.35 34.45 10.05 34.45Q11.70 34.45 12.70 35.60Q13.70 36.75 13.70 38.30ZM411.85 20.65Q413.20 21.90 414.65 23.27Q416.10 24.65 417.10 26.20L417.30 26.45L413.80 29L413.55 28.70Q412.50 27.20 411.65 25.43Q410.80 23.65 410.05 22Q409.25 23.65 408.40 25.43Q407.55 27.20 406.40 28.70L406.15 28.95L402.70 26.45L402.95 26.15Q404.05 24.60 405.45 23.25Q406.85 21.90 408.20 20.65Q406.35 20.40 404.40 20.13Q402.45 19.85 400.70 19.25L400.35 19.15L401.70 15.05L402.05 15.20Q403.80 15.90 405.57 16.75Q407.35 17.60 408.95 18.50Q408.55 16.70 408.23 14.75Q407.90 12.80 407.90 10.90L407.90 10.55L412.20 10.55L412.20 10.90Q412.20 12.80 411.88 14.75Q411.55 16.70 411.15 18.50Q412.75 17.55 414.50 16.72Q416.25 15.90 418 15.25L418.35 15.10L419.65 19.20L419.35 19.30Q417.55 19.85 415.63 20.15Q413.70 20.45 411.85 20.65ZM588.70 38.30Q588.70 39.80 587.70 40.95Q586.70 42.10 585.05 42.10Q583.35 42.10 582.35 40.95Q581.35 39.80 581.35 38.30Q581.35 36.75 582.35 35.60Q583.35 34.45 585.05 34.45Q586.70 34.45 587.70 35.60Q588.70 36.75 588.70 38.30ZM1088.70 38.30Q1088.70 39.80 1087.70 40.95Q1086.70 42.10 1085.05 42.10Q1083.35 42.10 1082.35 40.95Q1081.35 39.80 1081.35 38.30Q1081.35 36.75 1082.35 35.60Q1083.35 34.45 1085.05 34.45Q1086.70 34.45 1087.70 35.60Q1088.70 36.75 1088.70 38.30ZM1511.85 20.65Q1513.20 21.90 1514.65 23.27Q1516.10 24.65 1517.10 26.20L1517.30 26.45L1513.80 29L1513.55 28.70Q1512.50 27.20 1511.65 25.43Q1510.80 23.65 1510.05 22Q1509.25 23.65 1508.40 25.43Q1507.55 27.20 1506.40 28.70L1506.15 28.95L1502.70 26.45L1502.95 26.15Q1504.05 24.60 1505.45 23.25Q1506.85 21.90 1508.20 20.65Q1506.35 20.40 1504.40 20.13Q1502.45 19.85 1500.70 19.25L1500.35 19.15L1501.70 15.05L1502.05 15.20Q1503.80 15.90 1505.58 16.75Q1507.35 17.60 1508.95 18.50Q1508.55 16.70 1508.22 14.75Q1507.90 12.80 1507.90 10.90L1507.90 10.55L1512.20 10.55L1512.20 10.90Q1512.20 12.80 1511.88 14.75Q1511.55 16.70 1511.15 18.50Q1512.75 17.55 1514.50 16.72Q1516.25 15.90 1518 15.25L1518.35 15.10L1519.65 19.20L1519.35 19.30Q1517.55 19.85 1515.63 20.15Q1513.70 20.45 1511.85 20.65Z"/></g><g transform="translate(0, 175.5)"><path d="M13.70 38.30Q13.70 39.80 12.70 40.95Q11.70 42.10 10.05 42.10Q8.35 42.10 7.35 40.95Q6.35 39.80 6.35 38.30Q6.35 36.75 7.35 35.60Q8.35 34.45 10.05 34.45Q11.70 34.45 12.70 35.60Q13.70 36.75 13.70 38.30ZM236.85 20.65Q238.20 21.90 239.65 23.27Q241.10 24.65 242.10 26.20L242.30 26.45L238.80 29L238.55 28.70Q237.50 27.20 236.65 25.43Q235.80 23.65 235.05 22Q234.25 23.65 233.40 25.43Q232.55 27.20 231.40 28.70L231.15 28.95L227.70 26.45L227.95 26.15Q229.05 24.60 230.45 23.25Q231.85 21.90 233.20 20.65Q231.35 20.40 229.40 20.13Q227.45 19.85 225.70 19.25L225.35 19.15L226.70 15.05L227.05 15.20Q228.80 15.90 230.57 16.75Q232.35 17.60 233.95 18.50Q233.55 16.70 233.22 14.75Q232.90 12.80 232.90 10.90L232.90 10.55L237.20 10.55L237.20 10.90Q237.20 12.80 236.88 14.75Q236.55 16.70 236.15 18.50Q237.75 17.55 239.50 16.72Q241.25 15.90 243 15.25L243.35 15.10L244.65 19.20L244.35 19.30Q242.55 19.85 240.63 20.15Q238.70 20.45 236.85 20.65ZM513.70 38.30Q513.70 39.80 512.70 40.95Q511.70 42.10 510.05 42.10Q508.35 42.10 507.35 40.95Q506.35 39.80 506.35 38.30Q506.35 36.75 507.35 35.60Q508.35 34.45 510.05 34.45Q511.70 34.45 512.70 35.60Q513.70 36.75 513.70 38.30ZM1136.85 20.65Q1138.20 21.90 1139.65 23.27Q1141.10 24.65 1142.10 26.20L1142.30 26.45L1138.80 29L1138.55 28.70Q1137.50 27.20 1136.65 25.43Q1135.80 23.65 1135.05 22Q1134.25 23.65 1133.40 25.43Q1132.55 27.20 1131.40 28.70L1131.15 28.95L1127.70 26.45L1127.95 26.15Q1129.05 24.60 1130.45 23.25Q1131.85 21.90 1133.20 20.65Q1131.35 20.40 1129.40 20.13Q1127.45 19.85 1125.70 19.25L1125.35 19.15L1126.70 15.05L1127.05 15.20Q1128.80 15.90 1130.58 16.75Q1132.35 17.60 1133.95 18.50Q1133.55 16.70 1133.22 14.75Q1132.90 12.80 1132.90 10.90L1132.90 10.55L1137.20 10.55L1137.20 10.90Q1137.20 12.80 1136.88 14.75Q1136.55 16.70 1136.15 18.50Q1137.75 17.55 1139.50 16.72Q1141.25 15.90 1143 15.25L1143.35 15.10L1144.65 19.20L1144.35 19.30Q1142.55 19.85 1140.63 20.15Q1138.70 20.45 1136.85 20.65ZM1338.70 38.30Q1338.70 39.80 1337.70 40.95Q1336.70 42.10 1335.05 42.10Q1333.35 42.10 1332.35 40.95Q1331.35 39.80 1331.35 38.30Q1331.35 36.75 1332.35 35.60Q1333.35 34.45 1335.05 34.45Q1336.70 34.45 1337.70 35.60Q1338.70 36.75 1338.70 38.30ZM1613.70 38.30Q1613.70 39.80 1612.70 40.95Q1611.70 42.10 1610.05 42.10Q1608.35 42.10 1607.35 40.95Q1606.35 39.80 1606.35 38.30Q1606.35 36.75 1607.35 35.60Q1608.35 34.45 1610.05 34.45Q1611.70 34.45 1612.70 35.60Q1613.70 36.75 1613.70 38.30Z"/></g><g transform="translate(0, 234)"><path d="M13.70 38.30Q13.70 39.80 12.70 40.95Q11.70 42.10 10.05 42.10Q8.35 42.10 7.35 40.95Q6.35 39.80 6.35 38.30Q6.35 36.75 7.35 35.60Q8.35 34.45 10.05 34.45Q11.70 34.45 12.70 35.60Q13.70 36.75 13.70 38.30ZM236.85 20.65Q238.20 21.90 239.65 23.27Q241.10 24.65 242.10 26.20L242.30 26.45L238.80 29L238.55 28.70Q237.50 27.20 236.65 25.43Q235.80 23.65 235.05 22Q234.25 23.65 233.40 25.43Q232.55 27.20 231.40 28.70L231.15 28.95L227.70 26.45L227.95 26.15Q229.05 24.60 230.45 23.25Q231.85 21.90 233.20 20.65Q231.35 20.40 229.40 20.13Q227.45 19.85 225.70 19.25L225.35 19.15L226.70 15.05L227.05 15.20Q228.80 15.90 230.57 16.75Q232.35 17.60 233.95 18.50Q233.55 16.70 233.22 14.75Q232.90 12.80 232.90 10.90L232.90 10.55L237.20 10.55L237.20 10.90Q237.20 12.80 236.88 14.75Q236.55 16.70 236.15 18.50Q237.75 17.55 239.50 16.72Q241.25 15.90 243 15.25L243.35 15.10L244.65 19.20L244.35 19.30Q242.55 19.85 240.63 20.15Q238.70 20.45 236.85 20.65ZM1136.85 20.65Q1138.20 21.90 1139.65 23.27Q1141.10 24.65 1142.10 26.20L1142.30 26.45L1138.80 29L1138.55 28.70Q1137.50 27.20 1136.65 25.43Q1135.80 23.65 1135.05 22Q1134.25 23.65 1133.40 25.43Q1132.55 27.20 1131.40 28.70L1131.15 28.95L1127.70 26.45L1127.95 26.15Q1129.05 24.60 1130.45 23.25Q1131.85 21.90 1133.20 20.65Q1131.35 20.40 1129.40 20.13Q1127.45 19.85 1125.70 19.25L1125.35 19.15L1126.70 15.05L1127.05 15.20Q1128.80 15.90 1130.58 16.75Q1132.35 17.60 1133.95 18.50Q1133.55 16.70 1133.22 14.75Q1132.90 12.80 1132.90 10.90L1132.90 10.55L1137.20 10.55L1137.20 10.90Q1137.20 12.80 1136.88 14.75Q1136.55 16.70 1136.15 18.50Q1137.75 17.55 1139.50 16.72Q1141.25 15.90 1143 15.25L1143.35 15.10L1144.65 19.20L1144.35 19.30Q1142.55 19.85 1140.63 20.15Q1138.70 20.45 1136.85 20.65Z"/></g><g transform="translate(0, 292.5)"><path d="M11.85 20.65Q13.20 21.90 14.65 23.27Q16.10 24.65 17.10 26.20L17.30 26.45L13.80 29L13.55 28.70Q12.50 27.20 11.65 25.43Q10.80 23.65 10.05 22Q9.25 23.65 8.40 25.43Q7.55 27.20 6.40 28.70L6.15 28.95L2.70 26.45L2.95 26.15Q4.05 24.60 5.45 23.25Q6.85 21.90 8.20 20.65Q6.35 20.40 4.40 20.13Q2.45 19.85 0.70 19.25L0.35 19.15L1.70 15.05L2.05 15.20Q3.80 15.90 5.58 16.75Q7.35 17.60 8.95 18.50Q8.55 16.70 8.23 14.75Q7.90 12.80 7.90 10.90L7.90 10.55L12.20 10.55L12.20 10.90Q12.20 12.80 11.88 14.75Q11.55 16.70 11.15 18.50Q12.75 17.55 14.50 16.72Q16.25 15.90 18 15.25L18.35 15.10L19.65 19.20L19.35 19.30Q17.55 19.85 15.63 20.15Q13.70 20.45 11.85 20.65ZM238.70 38.30Q238.70 39.80 237.70 40.95Q236.70 42.10 235.05 42.10Q233.35 42.10 232.35 40.95Q231.35 39.80 231.35 38.30Q231.35 36.75 232.35 35.60Q233.35 34.45 235.05 34.45Q236.70 34.45 237.70 35.60Q238.70 36.75 238.70 38.30ZM938.70 38.30Q938.70 39.80 937.70 40.95Q936.70 42.10 935.05 42.10Q933.35 42.10 932.35 40.95Q931.35 39.80 931.35 38.30Q931.35 36.75 932.35 35.60Q933.35 34.45 935.05 34.45Q936.70 34.45 937.70 35.60Q938.70 36.75 938.70 38.30ZM1311.85 20.65Q1313.20 21.90 1314.65 23.27Q1316.10 24.65 1317.10 26.20L1317.30 26.45L1313.80 29L1313.55 28.70Q1312.50 27.20 1311.65 25.43Q1310.80 23.65 1310.05 22Q1309.25 23.65 1308.40 25.43Q1307.55 27.20 1306.40 28.70L1306.15 28.95L1302.70 26.45L1302.95 26.15Q1304.05 24.60 1305.45 23.25Q1306.85 21.90 1308.20 20.65Q1306.35 20.40 1304.40 20.13Q1302.45 19.85 1300.70 19.25L1300.35 19.15L1301.70 15.05L1302.05 15.20Q1303.80 15.90 1305.58 16.75Q1307.35 17.60 1308.95 18.50Q1308.55 16.70 1308.22 14.75Q1307.90 12.80 1307.90 10.90L1307.90 10.55L1312.20 10.55L1312.20 10.90Q1312.20 12.80 1311.88 14.75Q1311.55 16.70 1311.15 18.50Q1312.75 17.55 1314.50 16.72Q1316.25 15.90 1318 15.25L1318.35 15.10L1319.65 19.20L1319.35 19.30Q1317.55 19.85 1315.63 20.15Q1313.70 20.45 1311.85 20.65ZM1888.70 38.30Q1888.70 39.80 1887.70 40.95Q1886.70 42.10 1885.05 42.10Q1883.35 42.10 1882.35 40.95Q1881.35 39.80 1881.35 38.30Q1881.35 36.75 1882.35 35.60Q1883.35 34.45 1885.05 34.45Q1886.70 34.45 1887.70 35.60Q1888.70 36.75 1888.70 38.30Z"/></g><g transform="translate(0, 351)"><path d="M11.85 20.65Q13.20 21.90 14.65 23.27Q16.10 24.65 17.10 26.20L17.30 26.45L13.80 29L13.55 28.70Q12.50 27.20 11.65 25.43Q10.80 23.65 10.05 22Q9.25 23.65 8.40 25.43Q7.55 27.20 6.40 28.70L6.15 28.95L2.70 26.45L2.95 26.15Q4.05 24.60 5.45 23.25Q6.85 21.90 8.20 20.65Q6.35 20.40 4.40 20.13Q2.45 19.85 0.70 19.25L0.35 19.15L1.70 15.05L2.05 15.20Q3.80 15.90 5.58 16.75Q7.35 17.60 8.95 18.50Q8.55 16.70 8.23 14.75Q7.90 12.80 7.90 10.90L7.90 10.55L12.20 10.55L12.20 10.90Q12.20 12.80 11.88 14.75Q11.55 16.70 11.15 18.50Q12.75 17.55 14.50 16.72Q16.25 15.90 18 15.25L18.35 15.10L19.65 19.20L19.35 19.30Q17.55 19.85 15.63 20.15Q13.70 20.45 11.85 20.65ZM388.70 38.30Q388.70 39.80 387.70 40.95Q386.70 42.10 385.05 42.10Q383.35 42.10 382.35 40.95Q381.35 39.80 381.35 38.30Q381.35 36.75 382.35 35.60Q383.35 34.45 385.05 34.45Q386.70 34.45 387.70 35.60Q388.70 36.75 388.70 38.30ZM1113.70 38.30Q1113.70 39.80 1112.70 40.95Q1111.70 42.10 1110.05 42.10Q1108.35 42.10 1107.35 40.95Q1106.35 39.80 1106.35 38.30Q1106.35 36.75 1107.35 35.60Q1108.35 34.45 1110.05 34.45Q1111.70 34.45 1112.70 35.60Q1113.70 36.75 1113.70 38.30ZM1336.85 20.65Q1338.20 21.90 1339.65 23.27Q1341.10 24.65 1342.10 26.20L1342.30 26.45L1338.80 29L1338.55 28.70Q1337.50 27.20 1336.65 25.43Q1335.80 23.65 1335.05 22Q1334.25 23.65 1333.40 25.43Q1332.55 27.20 1331.40 28.70L1331.15 28.95L1327.70 26.45L1327.95 26.15Q1329.05 24.60 1330.45 23.25Q1331.85 21.90 1333.20 20.65Q1331.35 20.40 1329.40 20.13Q1327.45 19.85 1325.70 19.25L1325.35 19.15L1326.70 15.05L1327.05 15.20Q1328.80 15.90 1330.58 16.75Q1332.35 17.60 1333.95 18.50Q1333.55 16.70 1333.22 14.75Q1332.90 12.80 1332.90 10.90L1332.90 10.55L1337.20 10.55L1337.20 10.90Q1337.20 12.80 1336.88 14.75Q1336.55 16.70 1336.15 18.50Q1337.75 17.55 1339.50 16.72Q1341.25 15.90 1343 15.25L1343.35 15.10L1344.65 19.20L1344.35 19.30Q1342.55 19.85 1340.63 20.15Q1338.70 20.45 1336.85 20.65Z"/></g><g transform="translate(0, 409.5)"><path d="M13.70 38.30Q13.70 39.80 12.70 40.95Q11.70 42.10 10.05 42.10Q8.35 42.10 7.35 40.95Q6.35 39.80 6.35 38.30Q6.35 36.75 7.35 35.60Q8.35 34.45 10.05 34.45Q11.70 34.45 12.70 35.60Q13.70 36.75 13.70 38.30ZM588.70 38.30Q588.70 39.80 587.70 40.95Q586.70 42.10 585.05 42.10Q583.35 42.10 582.35 40.95Q581.35 39.80 581.35 38.30Q581.35 36.75 582.35 35.60Q583.35 34.45 585.05 34.45Q586.70 34.45 587.70 35.60Q588.70 36.75 588.70 38.30ZM1011.85 20.65Q1013.20 21.90 1014.65 23.27Q1016.10 24.65 1017.10 26.20L1017.30 26.45L1013.80 29L1013.55 28.70Q1012.50 27.20 1011.65 25.43Q1010.80 23.65 1010.05 22Q1009.25 23.65 1008.40 25.43Q1007.55 27.20 1006.40 28.70L1006.15 28.95L1002.70 26.45L1002.95 26.15Q1004.05 24.60 1005.45 23.25Q1006.85 21.90 1008.20 20.65Q1006.35 20.40 1004.40 20.13Q1002.45 19.85 1000.70 19.25L1000.35 19.15L1001.70 15.05L1002.05 15.20Q1003.80 15.90 1005.58 16.75Q1007.35 17.60 1008.95 18.50Q1008.55 16.70 1008.23 14.75Q1007.90 12.80 1007.90 10.90L1007.90 10.55L1012.20 10.55L1012.20 10.90Q1012.20 12.80 1011.88 14.75Q1011.55 16.70 1011.15 18.50Q1012.75 17.55 1014.50 16.72Q1016.25 15.90 1018 15.25L1018.35 15.10L1019.65 19.20L1019.35 19.30Q1017.55 19.85 1015.63 20.15Q1013.70 20.45 1011.85 20.65ZM1238.70 38.30Q1238.70 39.80 1237.70 40.95Q1236.70 42.10 1235.05 42.10Q1233.35 42.10 1232.35 40.95Q1231.35 39.80 1231.35 38.30Q1231.35 36.75 1232.35 35.60Q1233.35 34.45 1235.05 34.45Q1236.70 34.45 1237.70 35.60Q1238.70 36.75 1238.70 38.30ZM1888.70 38.30Q1888.70 39.80 1887.70 40.95Q1886.70 42.10 1885.05 42.10Q1883.35 42.10 1882.35 40.95Q1881.35 39.80 1881.35 38.30Q1881.35 36.75 1882.35 35.60Q1883.35 34.45 1885.05 34.45Q1886.70 34.45 1887.70 35.60Q1888.70 36.75 1888.70 38.30Z"/></g><g transform="translate(0, 468)"><path d="M11.85 20.65Q13.20 21.90 14.65 23.27Q16.10 24.65 17.10 26.20L17.30 26.45L13.80 29L13.55 28.70Q12.50 27.20 11.65 25.43Q10.80 23.65 10.05 22Q9.25 23.65 8.40 25.43Q7.55 27.20 6.40 28.70L6.15 28.95L2.70 26.45L2.95 26.15Q4.05 24.60 5.45 23.25Q6.85 21.90 8.20 20.65Q6.35 20.40 4.40 20.13Q2.45 19.85 0.70 19.25L0.35 19.15L1.70 15.05L2.05 15.20Q3.80 15.90 5.58 16.75Q7.35 17.60 8.95 18.50Q8.55 16.70 8.23 14.75Q7.90 12.80 7.90 10.90L7.90 10.55L12.20 10.55L12.20 10.90Q12.20 12.80 11.88 14.75Q11.55 16.70 11.15 18.50Q12.75 17.55 14.50 16.72Q16.25 15.90 18 15.25L18.35 15.10L19.65 19.20L19.35 19.30Q17.55 19.85 15.63 20.15Q13.70 20.45 11.85 20.65ZM213.70 38.30Q213.70 39.80 212.70 40.95Q211.70 42.10 210.05 42.10Q208.35 42.10 207.35 40.95Q206.35 39.80 206.35 38.30Q206.35 36.75 207.35 35.60Q208.35 34.45 210.05 34.45Q211.70 34.45 212.70 35.60Q213.70 36.75 213.70 38.30ZM536.85 20.65Q538.20 21.90 539.65 23.27Q541.10 24.65 542.10 26.20L542.30 26.45L538.80 29L538.55 28.70Q537.50 27.20 536.65 25.43Q535.80 23.65 535.05 22Q534.25 23.65 533.40 25.43Q532.55 27.20 531.40 28.70L531.15 28.95L527.70 26.45L527.95 26.15Q529.05 24.60 530.45 23.25Q531.85 21.90 533.20 20.65Q531.35 20.40 529.40 20.13Q527.45 19.85 525.70 19.25L525.35 19.15L526.70 15.05L527.05 15.20Q528.80 15.90 530.58 16.75Q532.35 17.60 533.95 18.50Q533.55 16.70 533.23 14.75Q532.90 12.80 532.90 10.90L532.90 10.55L537.20 10.55L537.20 10.90Q537.20 12.80 536.88 14.75Q536.55 16.70 536.15 18.50Q537.75 17.55 539.50 16.72Q541.25 15.90 543 15.25L543.35 15.10L544.65 19.20L544.35 19.30Q542.55 19.85 540.63 20.15Q538.70 20.45 536.85 20.65ZM1188.70 38.30Q1188.70 39.80 1187.70 40.95Q1186.70 42.10 1185.05 42.10Q1183.35 42.10 1182.35 40.95Q1181.35 39.80 1181.35 38.30Q1181.35 36.75 1182.35 35.60Q1183.35 34.45 1185.05 34.45Q1186.70 34.45 1187.70 35.60Q1188.70 36.75 1188.70 38.30ZM1486.85 20.65Q1488.20 21.90 1489.65 23.27Q1491.10 24.65 1492.10 26.20L1492.30 26.45L1488.80 29L1488.55 28.70Q1487.50 27.20 1486.65 25.43Q1485.80 23.65 1485.05 22Q1484.25 23.65 1483.40 25.43Q1482.55 27.20 1481.40 28.70L1481.15 28.95L1477.70 26.45L1477.95 26.15Q1479.05 24.60 1480.45 23.25Q1481.85 21.90 1483.20 20.65Q1481.35 20.40 1479.40 20.13Q1477.45 19.85 1475.70 19.25L1475.35 19.15L1476.70 15.05L1477.05 15.20Q1478.80 15.90 1480.58 16.75Q1482.35 17.60 1483.95 18.50Q1483.55 16.70 1483.22 14.75Q1482.90 12.80 1482.90 10.90L1482.90 10.55L1487.20 10.55L1487.20 10.90Q1487.20 12.80 1486.88 14.75Q1486.55 16.70 1486.15 18.50Q1487.75 17.55 1489.50 16.72Q1491.25 15.90 1493 15.25L1493.35 15.10L1494.65 19.20L1494.35 19.30Q1492.55 19.85 1490.63 20.15Q1488.70 20.45 1486.85 20.65Z"/></g><g transform="translate(0, 526.5)"><path d="M13.70 38.30Q13.70 39.80 12.70 40.95Q11.70 42.10 10.05 42.10Q8.35 42.10 7.35 40.95Q6.35 39.80 6.35 38.30Q6.35 36.75 7.35 35.60Q8.35 34.45 10.05 34.45Q11.70 34.45 12.70 35.60Q13.70 36.75 13.70 38.30ZM386.85 20.65Q388.20 21.90 389.65 23.27Q391.10 24.65 392.10 26.20L392.30 26.45L388.80 29L388.55 28.70Q387.50 27.20 386.65 25.43Q385.80 23.65 385.05 22Q384.25 23.65 383.40 25.43Q382.55 27.20 381.40 28.70L381.15 28.95L377.70 26.45L377.95 26.15Q379.05 24.60 380.45 23.25Q381.85 21.90 383.20 20.65Q381.35 20.40 379.40 20.13Q377.45 19.85 375.70 19.25L375.35 19.15L376.70 15.05L377.05 15.20Q378.80 15.90 380.57 16.75Q382.35 17.60 383.95 18.50Q383.55 16.70 383.23 14.75Q382.90 12.80 382.90 10.90L382.90 10.55L387.20 10.55L387.20 10.90Q387.20 12.80 386.88 14.75Q386.55 16.70 386.15 18.50Q387.75 17.55 389.50 16.72Q391.25 15.90 393 15.25L393.35 15.10L394.65 19.20L394.35 19.30Q392.55 19.85 390.63 20.15Q388.70 20.45 386.85 20.65ZM538.70 38.30Q538.70 39.80 537.70 40.95Q536.70 42.10 535.05 42.10Q533.35 42.10 532.35 40.95Q531.35 39.80 531.35 38.30Q531.35 36.75 532.35 35.60Q533.35 34.45 535.05 34.45Q536.70 34.45 537.70 35.60Q538.70 36.75 538.70 38.30ZM1011.85 20.65Q1013.20 21.90 1014.65 23.27Q1016.10 24.65 1017.10 26.20L1017.30 26.45L1013.80 29L1013.55 28.70Q1012.50 27.20 1011.65 25.43Q1010.80 23.65 1010.05 22Q1009.25 23.65 1008.40 25.43Q1007.55 27.20 1006.40 28.70L1006.15 28.95L1002.70 26.45L1002.95 26.15Q1004.05 24.60 1005.45 23.25Q1006.85 21.90 1008.20 20.65Q1006.35 20.40 1004.40 20.13Q1002.45 19.85 1000.70 19.25L1000.35 19.15L1001.70 15.05L1002.05 15.20Q1003.80 15.90 1005.58 16.75Q1007.35 17.60 1008.95 18.50Q1008.55 16.70 1008.23 14.75Q1007.90 12.80 1007.90 10.90L1007.90 10.55L1012.20 10.55L1012.20 10.90Q1012.20 12.80 1011.88 14.75Q1011.55 16.70 1011.15 18.50Q1012.75 17.55 1014.50 16.72Q1016.25 15.90 1018 15.25L1018.35 15.10L1019.65 19.20L1019.35 19.30Q1017.55 19.85 1015.63 20.15Q1013.70 20.45 1011.85 20.65ZM1288.70 38.30Q1288.70 39.80 1287.70 40.95Q1286.70 42.10 1285.05 42.10Q1283.35 42.10 1282.35 40.95Q1281.35 39.80 1281.35 38.30Q1281.35 36.75 1282.35 35.60Q1283.35 34.45 1285.05 34.45Q1286.70 34.45 1287.70 35.60Q1288.70 36.75 1288.70 38.30Z"/></g><g transform="translate(0, 585)"><path d="M13.70 38.30Q13.70 39.80 12.70 40.95Q11.70 42.10 10.05 42.10Q8.35 42.10 7.35 40.95Q6.35 39.80 6.35 38.30Q6.35 36.75 7.35 35.60Q8.35 34.45 10.05 34.45Q11.70 34.45 12.70 35.60Q13.70 36.75 13.70 38.30ZM236.85 20.65Q238.20 21.90 239.65 23.27Q241.10 24.65 242.10 26.20L242.30 26.45L238.80 29L238.55 28.70Q237.50 27.20 236.65 25.43Q235.80 23.65 235.05 22Q234.25 23.65 233.40 25.43Q232.55 27.20 231.40 28.70L231.15 28.95L227.70 26.45L227.95 26.15Q229.05 24.60 230.45 23.25Q231.85 21.90 233.20 20.65Q231.35 20.40 229.40 20.13Q227.45 19.85 225.70 19.25L225.35 19.15L226.70 15.05L227.05 15.20Q228.80 15.90 230.57 16.75Q232.35 17.60 233.95 18.50Q233.55 16.70 233.22 14.75Q232.90 12.80 232.90 10.90L232.90 10.55L237.20 10.55L237.20 10.90Q237.20 12.80 236.88 14.75Q236.55 16.70 236.15 18.50Q237.75 17.55 239.50 16.72Q241.25 15.90 243 15.25L243.35 15.10L244.65 19.20L244.35 19.30Q242.55 19.85 240.63 20.15Q238.70 20.45 236.85 20.65ZM738.70 38.30Q738.70 39.80 737.70 40.95Q736.70 42.10 735.05 42.10Q733.35 42.10 732.35 40.95Q731.35 39.80 731.35 38.30Q731.35 36.75 732.35 35.60Q733.35 34.45 735.05 34.45Q736.70 34.45 737.70 35.60Q738.70 36.75 738.70 38.30ZM1186.85 20.65Q1188.20 21.90 1189.65 23.27Q1191.10 24.65 1192.10 26.20L1192.30 26.45L1188.80 29L1188.55 28.70Q1187.50 27.20 1186.65 25.43Q1185.80 23.65 1185.05 22Q1184.25 23.65 1183.40 25.43Q1182.55 27.20 1181.40 28.70L1181.15 28.95L1177.70 26.45L1177.95 26.15Q1179.05 24.60 1180.45 23.25Q1181.85 21.90 1183.20 20.65Q1181.35 20.40 1179.40 20.13Q1177.45 19.85 1175.70 19.25L1175.35 19.15L1176.70 15.05L1177.05 15.20Q1178.80 15.90 1180.58 16.75Q1182.35 17.60 1183.95 18.50Q1183.55 16.70 1183.22 14.75Q1182.90 12.80 1182.90 10.90L1182.90 10.55L1187.20 10.55L1187.20 10.90Q1187.20 12.80 1186.88 14.75Q1186.55 16.70 1186.15 18.50Q1187.75 17.55 1189.50 16.72Q1191.25 15.90 1193 15.25L1193.35 15.10L1194.65 19.20L1194.35 19.30Q1192.55 19.85 1190.63 20.15Q1188.70 20.45 1186.85 20.65ZM1663.70 38.30Q1663.70 39.80 1662.70 40.95Q1661.70 42.10 1660.05 42.10Q1658.35 42.10 1657.35 40.95Q1656.35 39.80 1656.35 38.30Q1656.35 36.75 1657.35 35.60Q1658.35 34.45 1660.05 34.45Q1661.70 34.45 1662.70 35.60Q1663.70 36.75 1663.70 38.30Z"/></g><g transform="translate(0, 643.5)"><path d="M13.70 38.30Q13.70 39.80 12.70 40.95Q11.70 42.10 10.05 42.10Q8.35 42.10 7.35 40.95Q6.35 39.80 6.35 38.30Q6.35 36.75 7.35 35.60Q8.35 34.45 10.05 34.45Q11.70 34.45 12.70 35.60Q13.70 36.75 13.70 38.30ZM211.85 20.65Q213.20 21.90 214.65 23.27Q216.10 24.65 217.10 26.20L217.30 26.45L213.80 29L213.55 28.70Q212.50 27.20 211.65 25.43Q210.80 23.65 210.05 22Q209.25 23.65 208.40 25.43Q207.55 27.20 206.40 28.70L206.15 28.95L202.70 26.45L202.95 26.15Q204.05 24.60 205.45 23.25Q206.85 21.90 208.20 20.65Q206.35 20.40 204.40 20.13Q202.45 19.85 200.70 19.25L200.35 19.15L201.70 15.05L202.05 15.20Q203.80 15.90 205.57 16.75Q207.35 17.60 208.95 18.50Q208.55 16.70 208.22 14.75Q207.90 12.80 207.90 10.90L207.90 10.55L212.20 10.55L212.20 10.90Q212.20 12.80 211.88 14.75Q211.55 16.70 211.15 18.50Q212.75 17.55 214.50 16.72Q216.25 15.90 218 15.25L218.35 15.10L219.65 19.20L219.35 19.30Q217.55 19.85 215.63 20.15Q213.70 20.45 211.85 20.65ZM563.70 38.30Q563.70 39.80 562.70 40.95Q561.70 42.10 560.05 42.10Q558.35 42.10 557.35 40.95Q556.35 39.80 556.35 38.30Q556.35 36.75 557.35 35.60Q558.35 34.45 560.05 34.45Q561.70 34.45 562.70 35.60Q563.70 36.75 563.70 38.30ZM1061.85 20.65Q1063.20 21.90 1064.65 23.27Q1066.10 24.65 1067.10 26.20L1067.30 26.45L1063.80 29L1063.55 28.70Q1062.50 27.20 1061.65 25.43Q1060.80 23.65 1060.05 22Q1059.25 23.65 1058.40 25.43Q1057.55 27.20 1056.40 28.70L1056.15 28.95L1052.70 26.45L1052.95 26.15Q1054.05 24.60 1055.45 23.25Q1056.85 21.90 1058.20 20.65Q1056.35 20.40 1054.40 20.13Q1052.45 19.85 1050.70 19.25L1050.35 19.15L1051.70 15.05L1052.05 15.20Q1053.80 15.90 1055.58 16.75Q1057.35 17.60 1058.95 18.50Q1058.55 16.70 1058.22 14.75Q1057.90 12.80 1057.90 10.90L1057.90 10.55L1062.20 10.55L1062.20 10.90Q1062.20 12.80 1061.88 14.75Q1061.55 16.70 1061.15 18.50Q1062.75 17.55 1064.50 16.72Q1066.25 15.90 1068 15.25L1068.35 15.10L1069.65 19.20L1069.35 19.30Q1067.55 19.85 1065.63 20.15Q1063.70 20.45 1061.85 20.65Z"/></g><g transform="translate(0, 702)"><path d="M11.85 20.65Q13.20 21.90 14.65 23.27Q16.10 24.65 17.10 26.20L17.30 26.45L13.80 29L13.55 28.70Q12.50 27.20 11.65 25.43Q10.80 23.65 10.05 22Q9.25 23.65 8.40 25.43Q7.55 27.20 6.40 28.70L6.15 28.95L2.70 26.45L2.95 26.15Q4.05 24.60 5.45 23.25Q6.85 21.90 8.20 20.65Q6.35 20.40 4.40 20.13Q2.45 19.85 0.70 19.25L0.35 19.15L1.70 15.05L2.05 15.20Q3.80 15.90 5.58 16.75Q7.35 17.60 8.95 18.50Q8.55 16.70 8.23 14.75Q7.90 12.80 7.90 10.90L7.90 10.55L12.20 10.55L12.20 10.90Q12.20 12.80 11.88 14.75Q11.55 16.70 11.15 18.50Q12.75 17.55 14.50 16.72Q16.25 15.90 18 15.25L18.35 15.10L19.65 19.20L19.35 19.30Q17.55 19.85 15.63 20.15Q13.70 20.45 11.85 20.65ZM313.70 38.30Q313.70 39.80 312.70 40.95Q311.70 42.10 310.05 42.10Q308.35 42.10 307.35 40.95Q306.35 39.80 306.35 38.30Q306.35 36.75 307.35 35.60Q308.35 34.45 310.05 34.45Q311.70 34.45 312.70 35.60Q313.70 36.75 313.70 38.30ZM886.85 20.65Q888.20 21.90 889.65 23.27Q891.10 24.65 892.10 26.20L892.30 26.45L888.80 29L888.55 28.70Q887.50 27.20 886.65 25.43Q885.80 23.65 885.05 22Q884.25 23.65 883.40 25.43Q882.55 27.20 881.40 28.70L881.15 28.95L877.70 26.45L877.95 26.15Q879.05 24.60 880.45 23.25Q881.85 21.90 883.20 20.65Q881.35 20.40 879.40 20.13Q877.45 19.85 875.70 19.25L875.35 19.15L876.70 15.05L877.05 15.20Q878.80 15.90 880.58 16.75Q882.35 17.60 883.95 18.50Q883.55 16.70 883.23 14.75Q882.90 12.80 882.90 10.90L882.90 10.55L887.20 10.55L887.20 10.90Q887.20 12.80 886.88 14.75Q886.55 16.70 886.15 18.50Q887.75 17.55 889.50 16.72Q891.25 15.90 893 15.25L893.35 15.10L894.65 19.20L894.35 19.30Q892.55 19.85 890.63 20.15Q888.70 20.45 886.85 20.65ZM1163.70 38.30Q1163.70 39.80 1162.70 40.95Q1161.70 42.10 1160.05 42.10Q1158.35 42.10 1157.35 40.95Q1156.35 39.80 1156.35 38.30Q1156.35 36.75 1157.35 35.60Q1158.35 34.45 1160.05 34.45Q1161.70 34.45 1162.70 35.60Q1163.70 36.75 1163.70 38.30ZM1386.85 20.65Q1388.20 21.90 1389.65 23.27Q1391.10 24.65 1392.10 26.20L1392.30 26.45L1388.80 29L1388.55 28.70Q1387.50 27.20 1386.65 25.43Q1385.80 23.65 1385.05 22Q1384.25 23.65 1383.40 25.43Q1382.55 27.20 1381.40 28.70L1381.15 28.95L1377.70 26.45L1377.95 26.15Q1379.05 24.60 1380.45 23.25Q1381.85 21.90 1383.20 20.65Q1381.35 20.40 1379.40 20.13Q1377.45 19.85 1375.70 19.25L1375.35 19.15L1376.70 15.05L1377.05 15.20Q1378.80 15.90 1380.58 16.75Q1382.35 17.60 1383.95 18.50Q1383.55 16.70 1383.22 14.75Q1382.90 12.80 1382.90 10.90L1382.90 10.55L1387.20 10.55L1387.20 10.90Q1387.20 12.80 1386.88 14.75Q1386.55 16.70 1386.15 18.50Q1387.75 17.55 1389.50 16.72Q1391.25 15.90 1393 15.25L1393.35 15.10L1394.65 19.20L1394.35 19.30Q1392.55 19.85 1390.63 20.15Q1388.70 20.45 1386.85 20.65ZM1738.70 38.30Q1738.70 39.80 1737.70 40.95Q1736.70 42.10 1735.05 42.10Q1733.35 42.10 1732.35 40.95Q1731.35 39.80 1731.35 38.30Q1731.35 36.75 1732.35 35.60Q1733.35 34.45 1735.05 34.45Q1736.70 34.45 1737.70 35.60Q1738.70 36.75 1738.70 38.30Z"/></g><g transform="translate(0, 760.5)"><path d="M13.70 38.30Q13.70 39.80 12.70 40.95Q11.70 42.10 10.05 42.10Q8.35 42.10 7.35 40.95Q6.35 39.80 6.35 38.30Q6.35 36.75 7.35 35.60Q8.35 34.45 10.05 34.45Q11.70 34.45 12.70 35.60Q13.70 36.75 13.70 38.30ZM386.85 20.65Q388.20 21.90 389.65 23.27Q391.10 24.65 392.10 26.20L392.30 26.45L388.80 29L388.55 28.70Q387.50 27.20 386.65 25.43Q385.80 23.65 385.05 22Q384.25 23.65 383.40 25.43Q382.55 27.20 381.40 28.70L381.15 28.95L377.70 26.45L377.95 26.15Q379.05 24.60 380.45 23.25Q381.85 21.90 383.20 20.65Q381.35 20.40 379.40 20.13Q377.45 19.85 375.70 19.25L375.35 19.15L376.70 15.05L377.05 15.20Q378.80 15.90 380.57 16.75Q382.35 17.60 383.95 18.50Q383.55 16.70 383.23 14.75Q382.90 12.80 382.90 10.90L382.90 10.55L387.20 10.55L387.20 10.90Q387.20 12.80 386.88 14.75Q386.55 16.70 386.15 18.50Q387.75 17.55 389.50 16.72Q391.25 15.90 393 15.25L393.35 15.10L394.65 19.20L394.35 19.30Q392.55 19.85 390.63 20.15Q388.70 20.45 386.85 20.65ZM913.70 38.30Q913.70 39.80 912.70 40.95Q911.70 42.10 910.05 42.10Q908.35 42.10 907.35 40.95Q906.35 39.80 906.35 38.30Q906.35 36.75 907.35 35.60Q908.35 34.45 910.05 34.45Q911.70 34.45 912.70 35.60Q913.70 36.75 913.70 38.30ZM1488.70 38.30Q1488.70 39.80 1487.70 40.95Q1486.70 42.10 1485.05 42.10Q1483.35 42.10 1482.35 40.95Q1481.35 39.80 1481.35 38.30Q1481.35 36.75 1482.35 35.60Q1483.35 34.45 1485.05 34.45Q1486.70 34.45 1487.70 35.60Q1488.70 36.75 1488.70 38.30ZM1736.85 20.65Q1738.20 21.90 1739.65 23.27Q1741.10 24.65 1742.10 26.20L1742.30 26.45L1738.80 29L1738.55 28.70Q1737.50 27.20 1736.65 25.43Q1735.80 23.65 1735.05 22Q1734.25 23.65 1733.40 25.43Q1732.55 27.20 1731.40 28.70L1731.15 28.95L1727.70 26.45L1727.95 26.15Q1729.05 24.60 1730.45 23.25Q1731.85 21.90 1733.20 20.65Q1731.35 20.40 1729.40 20.13Q1727.45 19.85 1725.70 19.25L1725.35 19.15L1726.70 15.05L1727.05 15.20Q1728.80 15.90 1730.58 16.75Q1732.35 17.60 1733.95 18.50Q1733.55 16.70 1733.22 14.75Q1732.90 12.80 1732.90 10.90L1732.90 10.55L1737.20 10.55L1737.20 10.90Q1737.20 12.80 1736.88 14.75Q1736.55 16.70 1736.15 18.50Q1737.75 17.55 1739.50 16.72Q1741.25 15.90 1743 15.25L1743.35 15.10L1744.65 19.20L1744.35 19.30Q1742.55 19.85 1740.63 20.15Q1738.70 20.45 1736.85 20.65Z"/></g></g></svg>