<svg version="1.1" id="Layer_1" xmlns="http://www.w3.org/2000/svg" xmlns:xlink="http://www.w3.org/1999/xlink" x="0px" y="0px"
	 width="100%" viewBox="0 0 512 512" enable-background="new 0 0 512 512" xml:space="preserve">
<path fill="#FFFFFF" opacity="1.000000" stroke="none" 
	d="
M1.000000,43.000000 
	C1.000000,29.006147 1.000000,15.012295 1.000000,1.013832 
	C171.585571,1.009221 342.171143,1.009221 513.000000,1.009221 
	C513.000000,145.688583 513.000000,290.377319 512.678833,435.370148 
	C510.416901,432.128204 509.340393,427.362335 506.375549,425.261749 
	C496.982269,418.606628 486.883545,412.947174 476.896332,406.600403 
	C464.518890,398.838928 452.302704,391.379730 440.180359,383.594666 
	C443.287689,378.603577 446.563141,374.083191 449.243683,369.233917 
	C452.138794,363.996429 454.477814,358.451538 457.046509,353.017639 
	C457.033630,352.994507 457.024200,353.046539 457.306152,353.023804 
	C457.758301,352.667114 457.928497,352.333160 458.403992,351.846771 
	C458.943817,351.458771 459.255646,351.263397 459.402008,350.981964 
	C476.824463,317.479492 485.112579,282.240265 480.090546,244.342392 
	C477.199188,222.523224 469.733612,202.491058 458.447357,183.645309 
	C448.379730,166.834396 435.388214,152.564301 420.942902,139.655777 
	C409.055878,129.033371 395.601471,120.611771 380.400848,115.182037 
	C367.266571,110.490387 353.685181,110.901779 339.935730,110.622276 
	C335.342529,105.216278 331.321045,99.665398 326.391327,95.093964 
	C319.645935,88.838829 312.420837,83.044823 305.030945,77.551437 
	C283.006683,61.179379 258.885681,58.079762 232.917145,66.610451 
	C225.846771,59.042572 219.341812,51.315861 211.923492,44.597683 
	C193.846176,28.226503 173.006424,23.451521 149.730637,31.720839 
	C144.045410,33.740658 138.612259,36.469925 132.912842,38.574913 
	C128.101364,33.277920 123.696922,28.004669 118.717491,23.346008 
	C111.683380,16.765041 103.011063,12.985086 93.428040,13.208740 
	C83.259636,13.446054 74.361122,18.156652 65.916832,23.554523 
	C63.603962,21.525021 61.656673,19.383875 59.246883,18.135530 
	C50.002922,13.346882 40.260811,11.483547 29.701553,14.155849 
	C29.260662,14.411218 29.074345,14.686453 28.927801,14.963485 
	C28.967575,14.965281 28.942892,14.889574 28.556499,14.939148 
	C23.141581,17.801826 17.826380,20.210712 13.153258,23.524942 
	C6.522626,28.227463 4.199502,35.964355 1.000000,43.000000 
z"/>
<path fill="#FFFFFF" opacity="1.000000" stroke="none" 
	d="
M513.000000,449.000000 
	C513.000000,470.323822 513.000000,491.647614 513.000000,512.978577 
	C342.419006,512.985718 171.838028,512.985718 1.000000,512.985718 
	C1.000000,379.978668 1.000000,246.957199 1.353638,113.619110 
	C5.176686,127.792755 14.740350,137.452805 26.918839,145.426178 
	C24.449951,150.905884 21.561247,155.878632 19.514629,161.176697 
	C13.322132,177.207123 13.382245,193.129257 21.336863,208.679016 
	C26.333447,218.446381 33.158974,226.878082 41.058636,234.353531 
	C45.288334,238.356125 50.312366,241.519287 54.850487,245.408096 
	C45.834110,270.184814 49.154564,293.104279 62.958050,314.885925 
	C70.980385,327.545044 81.631012,337.773926 92.492493,347.831360 
	C94.358528,349.559265 96.809525,350.655457 99.001266,352.471558 
	C96.305855,367.091125 98.488937,380.977814 103.312202,394.187683 
	C113.159096,421.156128 132.393875,441.153290 154.098053,458.936371 
	C166.280197,468.917664 179.865646,476.772583 194.491959,482.678223 
	C207.498734,487.929901 220.912735,491.722717 235.120850,493.332306 
	C236.506668,493.747406 237.721237,493.835938 239.124695,493.993805 
	C239.313568,494.063171 239.715179,494.038116 240.000336,494.354187 
	C244.535156,495.139862 248.781235,495.645203 253.035141,496.072784 
	C269.366913,497.714355 285.677734,500.306702 302.040741,500.700317 
	C320.869507,501.153320 339.757874,499.894592 358.595337,498.903595 
	C368.411255,498.387207 378.173431,496.847931 388.379211,495.858093 
	C400.539185,493.796234 412.506866,492.472626 423.971375,489.319580 
	C445.405731,483.424652 466.593536,476.611481 487.793518,469.895081 
	C498.901459,466.375916 509.272980,461.597015 513.000000,449.000000 
z"/>
<path fill="#FFB655" opacity="1.000000" stroke="none" 
	d="
M513.000000,448.536804 
	C509.272980,461.597015 498.901459,466.375916 487.793518,469.895081 
	C466.593536,476.611481 445.405731,483.424652 423.971375,489.319580 
	C412.506866,492.472626 400.539185,493.796234 388.433533,495.526459 
	C389.268585,494.025482 390.431488,492.898743 391.674377,491.868500 
	C407.070679,479.106506 422.841797,466.765106 437.745392,453.452271 
	C446.476166,445.653442 454.100098,436.542328 461.711121,427.587372 
	C467.258911,421.059906 471.972260,413.823212 477.057617,406.902679 
	C486.883545,412.947174 496.982269,418.606628 506.375549,425.261749 
	C509.340393,427.362335 510.416901,432.128204 512.678833,435.837128 
	C513.000000,440.024536 513.000000,444.049103 513.000000,448.536804 
z"/>
<path fill="#FF9811" opacity="1.000000" stroke="none" 
	d="
M26.884048,145.067947 
	C14.740350,137.452805 5.176686,127.792755 1.353638,113.151253 
	C1.000000,109.307091 1.000000,105.614182 1.359558,101.298965 
	C2.758828,97.307678 3.555790,93.838234 4.898305,90.594589 
	C6.666784,86.321770 8.863879,82.226349 11.232275,78.012161 
	C12.263323,77.528557 13.077215,77.210129 13.593287,76.627777 
	C20.291952,69.068741 26.766830,61.300575 33.702549,53.967640 
	C36.572445,50.933384 37.752487,48.876308 34.401714,45.400532 
	C32.660778,43.594650 32.056015,40.692005 30.943014,38.282494 
	C27.452837,30.726679 29.009109,22.738609 28.942892,14.889574 
	C28.942892,14.889574 28.967575,14.965281 29.147266,14.893360 
	C29.619419,14.686807 29.829142,14.471566 29.956129,14.175716 
	C40.260811,11.483547 50.002922,13.346882 59.246883,18.135530 
	C61.656673,19.383875 63.603962,21.525021 65.860916,23.904648 
	C59.580730,29.435705 54.681789,35.540958 50.909225,42.604740 
	C42.220322,58.873936 40.306328,71.352303 53.881180,87.368469 
	C57.349903,91.461006 61.131447,95.288414 64.990860,99.478203 
	C63.040493,101.769798 61.156124,104.059021 59.191780,106.277435 
	C53.816803,112.347610 48.239704,118.247879 43.058502,124.478111 
	C37.480122,131.185959 32.260307,138.192001 26.884048,145.067947 
z"/>
<path fill="#EE8700" opacity="1.000000" stroke="none" 
	d="
M28.556499,14.939148 
	C29.009109,22.738609 27.452837,30.726679 30.943014,38.282494 
	C32.056015,40.692005 32.660778,43.594650 34.401714,45.400532 
	C37.752487,48.876308 36.572445,50.933384 33.702549,53.967640 
	C26.766830,61.300575 20.291952,69.068741 13.593287,76.627777 
	C13.077215,77.210129 12.263323,77.528557 10.927731,77.863342 
	C7.178400,72.171349 4.089200,66.585670 1.000000,61.000000 
	C1.000000,55.311958 1.000000,49.623920 1.000000,43.467941 
	C4.199502,35.964355 6.522626,28.227463 13.153258,23.524942 
	C17.826380,20.210712 23.141581,17.801826 28.556499,14.939148 
z"/>
<path fill="#FFFFFF" opacity="1.000000" stroke="none" 
	d="
M1.000000,61.468658 
	C4.089200,66.585670 7.178400,72.171349 10.572145,77.905838 
	C8.863879,82.226349 6.666784,86.321770 4.898305,90.594589 
	C3.555790,93.838234 2.758828,97.307678 1.359558,100.838326 
	C1.000000,87.979103 1.000000,74.958214 1.000000,61.468658 
z"/>
<path fill="#FFDAAA" opacity="1.000000" stroke="none" 
	d="
M340.102570,110.913986 
	C353.685181,110.901779 367.266571,110.490387 380.400848,115.182037 
	C395.601471,120.611771 409.055878,129.033371 420.942902,139.655777 
	C435.388214,152.564301 448.379730,166.834396 458.447357,183.645309 
	C469.733612,202.491058 477.199188,222.523224 480.090546,244.342392 
	C485.112579,282.240265 476.824463,317.479492 459.402008,350.981964 
	C459.255646,351.263397 458.943817,351.458771 458.158875,351.946381 
	C457.413696,352.481140 457.218933,352.763855 457.024200,353.046539 
	C457.024200,353.046539 457.033630,352.994507 456.693237,353.032074 
	C455.897400,353.260345 455.362762,353.354919 454.997925,353.655579 
	C438.630554,367.141998 420.832397,378.364166 401.556091,387.193207 
	C371.463470,400.976440 340.166290,407.853943 306.869293,404.106750 
	C289.700439,402.174622 273.401703,397.495911 257.992401,389.918488 
	C227.010834,374.683472 202.066177,352.525055 183.830872,323.151855 
	C175.296234,309.404388 170.065125,294.209320 170.251862,277.977509 
	C170.366241,268.035309 172.054230,257.876831 174.670120,248.260132 
	C177.607117,237.463058 181.071106,226.501740 189.372803,218.151138 
	C213.861313,193.518326 238.346466,168.857513 265.961243,147.646820 
	C282.735382,134.762772 300.386719,123.233566 320.754547,116.641182 
	C327.151611,114.570656 333.650360,112.814201 340.102570,110.913986 
M427.838379,325.398285 
	C427.137451,327.082489 426.318787,328.728485 425.757141,330.457947 
	C423.911835,336.140045 425.334351,339.688263 430.061646,341.484161 
	C433.989502,342.976349 438.594696,340.864594 440.366333,336.017548 
	C445.082306,323.114807 450.050079,310.259094 453.838562,297.074554 
	C457.858643,283.083954 457.447998,268.481232 456.915131,254.062393 
	C456.453827,241.579269 453.522797,229.476089 448.771027,217.919235 
	C446.351929,212.035660 438.121552,211.265976 435.143982,216.742157 
	C433.909943,219.011688 433.909119,222.710144 434.797821,225.251587 
	C440.283600,240.939713 442.061340,256.905823 441.176239,273.523590 
	C440.214966,291.571045 435.360596,308.370056 427.838379,325.398285 
M406.891418,164.025406 
	C399.736877,167.467316 398.816742,172.731934 404.064026,178.613297 
	C409.235718,184.409897 414.222809,190.376022 419.157410,196.377502 
	C422.250946,200.139832 428.055023,201.321945 431.550903,198.638672 
	C434.651245,196.258942 435.135468,191.528244 431.895386,187.497467 
	C425.993774,180.155624 419.791534,173.041885 413.422699,166.100952 
	C412.200775,164.769241 409.635651,164.670029 406.891418,164.025406 
z"/>
<path fill="#FFC477" opacity="1.000000" stroke="none" 
	d="
M339.935730,110.622269 
	C333.650360,112.814201 327.151611,114.570656 320.754547,116.641182 
	C300.386719,123.233566 282.735382,134.762772 265.961243,147.646820 
	C238.346466,168.857513 213.861313,193.518326 189.372803,218.151138 
	C181.071106,226.501740 177.607117,237.463058 174.670120,248.260132 
	C172.054230,257.876831 170.366241,268.035309 170.251862,277.977509 
	C170.065125,294.209320 175.296234,309.404388 183.830872,323.151855 
	C202.066177,352.525055 227.010834,374.683472 257.992401,389.918488 
	C273.401703,397.495911 289.700439,402.174622 306.869293,404.106750 
	C340.166290,407.853943 371.463470,400.976440 401.556091,387.193207 
	C420.832397,378.364166 438.630554,367.141998 454.997925,353.655579 
	C455.362762,353.354919 455.897400,353.260345 456.706146,353.055206 
	C454.477814,358.451538 452.138794,363.996429 449.243683,369.233917 
	C446.563141,374.083191 443.287689,378.603577 439.869202,383.746521 
	C430.575562,394.709320 422.119080,405.601624 412.705688,415.592285 
	C394.764343,434.633972 374.503479,450.932617 352.005554,464.402740 
	C332.637665,475.998810 312.017517,484.643890 290.065430,489.688721 
	C273.564087,493.480896 256.660553,494.447540 239.715179,494.038116 
	C239.715179,494.038116 239.313568,494.063171 238.901978,493.719360 
	C237.310135,493.252289 236.129883,493.128998 234.949615,493.005737 
	C220.912735,491.722717 207.498734,487.929901 194.491959,482.678223 
	C179.865646,476.772583 166.280197,468.917664 154.098053,458.936371 
	C132.393875,441.153290 113.159096,421.156128 103.312202,394.187683 
	C98.488937,380.977814 96.305855,367.091125 99.047501,352.074524 
	C102.577026,331.808228 110.206619,313.912567 121.313858,297.812653 
	C131.271500,283.379120 142.626221,269.905609 153.462143,256.085022 
	C155.642242,253.304459 156.711639,251.291702 153.733826,247.998718 
	C149.647873,243.480331 146.095657,238.392792 142.856201,233.210648 
	C129.804886,212.332489 126.395416,190.209885 134.639526,166.614655 
	C139.786835,151.882736 147.577164,138.602936 156.660004,126.067299 
	C161.808685,118.961349 166.914642,111.599724 173.245468,105.632286 
	C181.046310,98.279182 189.669800,91.575600 198.725937,85.834602 
	C209.744019,78.849869 221.583115,73.160248 233.067062,66.910385 
	C258.885681,58.079762 283.006683,61.179379 305.030945,77.551437 
	C312.420837,83.044823 319.645935,88.838829 326.391327,95.093964 
	C331.321045,99.665398 335.342529,105.216278 339.935730,110.622269 
z"/>
<path fill="#FFB655" opacity="1.000000" stroke="none" 
	d="
M232.917145,66.610443 
	C221.583115,73.160248 209.744019,78.849869 198.725937,85.834602 
	C189.669800,91.575600 181.046310,98.279182 173.245468,105.632286 
	C166.914642,111.599724 161.808685,118.961349 156.660004,126.067299 
	C147.577164,138.602936 139.786835,151.882736 134.639526,166.614655 
	C126.395416,190.209885 129.804886,212.332489 142.856201,233.210648 
	C146.095657,238.392792 149.647873,243.480331 153.733826,247.998718 
	C156.711639,251.291702 155.642242,253.304459 153.462143,256.085022 
	C142.626221,269.905609 131.271500,283.379120 121.313858,297.812653 
	C110.206619,313.912567 102.577026,331.808228 99.036552,351.646484 
	C96.809525,350.655457 94.358528,349.559265 92.492493,347.831360 
	C81.631012,337.773926 70.980385,327.545044 62.958050,314.885925 
	C49.154564,293.104279 45.834110,270.184814 54.989864,245.065948 
	C63.164070,222.429092 76.927574,204.185867 91.841080,186.688141 
	C97.185631,180.417496 102.714561,174.304016 108.136139,168.145142 
	C103.622459,162.742874 99.213821,157.988892 95.398422,152.798813 
	C85.207016,138.935455 79.114204,123.849152 83.426979,106.256264 
	C89.196968,82.719017 101.736336,63.516972 120.862953,48.614849 
	C124.967880,45.416569 128.998413,42.122795 133.063202,38.873005 
	C138.612259,36.469925 144.045410,33.740658 149.730637,31.720839 
	C173.006424,23.451521 193.846176,28.226503 211.923492,44.597683 
	C219.341812,51.315861 225.846771,59.042572 232.917145,66.610443 
z"/>
<path fill="#FFA733" opacity="1.000000" stroke="none" 
	d="
M132.912842,38.574913 
	C128.998413,42.122795 124.967880,45.416569 120.862953,48.614849 
	C101.736336,63.516972 89.196968,82.719017 83.426979,106.256264 
	C79.114204,123.849152 85.207016,138.935455 95.398422,152.798813 
	C99.213821,157.988892 103.622459,162.742874 108.136139,168.145142 
	C102.714561,174.304016 97.185631,180.417496 91.841080,186.688141 
	C76.927574,204.185867 63.164070,222.429092 55.117310,244.719116 
	C50.312366,241.519287 45.288334,238.356125 41.058636,234.353531 
	C33.158974,226.878082 26.333447,218.446381 21.336863,208.679016 
	C13.382245,193.129257 13.322132,177.207123 19.514629,161.176697 
	C21.561247,155.878632 24.449951,150.905884 26.918839,145.426178 
	C32.260307,138.192001 37.480122,131.185959 43.058502,124.478111 
	C48.239704,118.247879 53.816803,112.347610 59.191780,106.277435 
	C61.156124,104.059021 63.040493,101.769798 64.990860,99.478203 
	C61.131447,95.288414 57.349903,91.461006 53.881180,87.368469 
	C40.306328,71.352303 42.220322,58.873936 50.909225,42.604740 
	C54.681789,35.540958 59.580730,29.435705 66.014084,24.203060 
	C74.361122,18.156652 83.259636,13.446054 93.428040,13.208740 
	C103.011063,12.985086 111.683380,16.765041 118.717491,23.346008 
	C123.696922,28.004669 128.101364,33.277920 132.912842,38.574913 
z"/>
<path fill="#FFA733" opacity="1.000000" stroke="none" 
	d="
M240.000336,494.354187 
	C256.660553,494.447540 273.564087,493.480896 290.065430,489.688721 
	C312.017517,484.643890 332.637665,475.998810 352.005554,464.402740 
	C374.503479,450.932617 394.764343,434.633972 412.705688,415.592285 
	C422.119080,405.601624 430.575562,394.709320 439.775360,384.072388 
	C452.302704,391.379730 464.518890,398.838928 476.896332,406.600403 
	C471.972260,413.823212 467.258911,421.059906 461.711121,427.587372 
	C454.100098,436.542328 446.476166,445.653442 437.745392,453.452271 
	C422.841797,466.765106 407.070679,479.106506 391.674377,491.868500 
	C390.431488,492.898743 389.268585,494.025482 388.014191,495.439026 
	C378.173431,496.847931 368.411255,498.387207 358.595337,498.903595 
	C339.757874,499.894592 320.869507,501.153320 302.040741,500.700317 
	C285.677734,500.306702 269.366913,497.714355 253.035141,496.072784 
	C248.781235,495.645203 244.535156,495.139862 240.000336,494.354187 
z"/>
<path fill="#EE8700" opacity="1.000000" stroke="none" 
	d="
M29.701553,14.155849 
	C29.829142,14.471566 29.619419,14.686807 29.107492,14.891563 
	C29.074345,14.686453 29.260662,14.411218 29.701553,14.155849 
z"/>
<path fill="#FFC477" opacity="1.000000" stroke="none" 
	d="
M457.306152,353.023804 
	C457.218933,352.763855 457.413696,352.481140 457.853577,352.098846 
	C457.928497,352.333160 457.758301,352.667114 457.306152,353.023804 
z"/>
<path fill="#FFA733" opacity="1.000000" stroke="none" 
	d="
M235.120850,493.332336 
	C236.129883,493.128998 237.310135,493.252289 238.713104,493.650024 
	C237.721237,493.835938 236.506668,493.747406 235.120850,493.332336 
z"/>
<path fill="#FFC478" opacity="1.000000" stroke="none" 
	d="
M427.991150,325.045898 
	C435.360596,308.370056 440.214966,291.571045 441.176239,273.523590 
	C442.061340,256.905823 440.283600,240.939713 434.797821,225.251587 
	C433.909119,222.710144 433.909943,219.011688 435.143982,216.742157 
	C438.121552,211.265976 446.351929,212.035660 448.771027,217.919235 
	C453.522797,229.476089 456.453827,241.579269 456.915131,254.062393 
	C457.447998,268.481232 457.858643,283.083954 453.838562,297.074554 
	C450.050079,310.259094 445.082306,323.114807 440.366333,336.017548 
	C438.594696,340.864594 433.989502,342.976349 430.061646,341.484161 
	C425.334351,339.688263 423.911835,336.140045 425.757141,330.457947 
	C426.318787,328.728485 427.137451,327.082489 427.991150,325.045898 
z"/>
<path fill="#FFC478" opacity="1.000000" stroke="none" 
	d="
M407.290802,164.013809 
	C409.635651,164.670029 412.200775,164.769241 413.422699,166.100952 
	C419.791534,173.041885 425.993774,180.155624 431.895386,187.497467 
	C435.135468,191.528244 434.651245,196.258942 431.550903,198.638672 
	C428.055023,201.321945 422.250946,200.139832 419.157410,196.377502 
	C414.222809,190.376022 409.235718,184.409897 404.064026,178.613297 
	C398.816742,172.731934 399.736877,167.467316 407.290802,164.013809 
z"/>
</svg>